<svg xmlns="http://www.w3.org/2000/svg" xmlns:xlink="http://www.w3.org/1999/xlink" width="1523" zoomAndPan="magnify" viewBox="0 0 1142.25 184.499994" height="246" preserveAspectRatio="xMidYMid meet" version="1.0"><defs><g/></defs><g fill="#005acd" fill-opacity="1"><g transform="translate(1.169612, 179.757625)"><g><path d="M 102.046875 -126.34375 L 102.046875 -101.6875 L 68.578125 -101.6875 L 68.578125 0 L 37.796875 0 L 37.796875 -101.6875 L 4.3125 -101.6875 L 4.3125 -126.34375 Z M 102.046875 -126.34375 "/></g></g></g><g fill="#005acd" fill-opacity="1"><g transform="translate(107.533651, 179.757625)"><g><path d="M 105.828125 -51.828125 C 105.828125 -48.953125 105.648438 -45.957031 105.296875 -42.84375 L 35.640625 -42.84375 C 36.117188 -36.601562 38.125 -31.832031 41.65625 -28.53125 C 45.195312 -25.226562 49.550781 -23.578125 54.71875 -23.578125 C 62.394531 -23.578125 67.734375 -26.816406 70.734375 -33.296875 L 103.484375 -33.296875 C 101.804688 -26.691406 98.773438 -20.75 94.390625 -15.46875 C 90.015625 -10.195312 84.523438 -6.0625 77.921875 -3.0625 C 71.328125 -0.0625 63.953125 1.4375 55.796875 1.4375 C 45.953125 1.4375 37.191406 -0.660156 29.515625 -4.859375 C 21.835938 -9.054688 15.835938 -15.054688 11.515625 -22.859375 C 7.203125 -30.660156 5.046875 -39.78125 5.046875 -50.21875 C 5.046875 -60.65625 7.171875 -69.769531 11.421875 -77.5625 C 15.679688 -85.363281 21.648438 -91.363281 29.328125 -95.5625 C 37.015625 -99.769531 45.835938 -101.875 55.796875 -101.875 C 65.515625 -101.875 74.148438 -99.832031 81.703125 -95.75 C 89.265625 -91.664062 95.175781 -85.84375 99.4375 -78.28125 C 103.695312 -70.726562 105.828125 -61.910156 105.828125 -51.828125 Z M 74.328125 -59.9375 C 74.328125 -65.21875 72.523438 -69.414062 68.921875 -72.53125 C 65.328125 -75.65625 60.832031 -77.21875 55.4375 -77.21875 C 50.28125 -77.21875 45.929688 -75.71875 42.390625 -72.71875 C 38.847656 -69.71875 36.65625 -65.457031 35.8125 -59.9375 Z M 74.328125 -59.9375 "/></g></g></g><g fill="#f8560f" fill-opacity="1"><g transform="translate(218.424171, 179.757625)"><g><path d="M 5.046875 -50.390625 C 5.046875 -60.710938 6.992188 -69.769531 10.890625 -77.5625 C 14.785156 -85.363281 20.09375 -91.363281 26.8125 -95.5625 C 33.53125 -99.769531 41.03125 -101.875 49.3125 -101.875 C 56.394531 -101.875 62.601562 -100.429688 67.9375 -97.546875 C 73.28125 -94.671875 77.390625 -90.894531 80.265625 -86.21875 L 80.265625 -100.4375 L 111.046875 -100.4375 L 111.046875 0 L 80.265625 0 L 80.265625 -14.21875 C 77.265625 -9.539062 73.09375 -5.757812 67.75 -2.875 C 62.414062 0 56.210938 1.4375 49.140625 1.4375 C 40.972656 1.4375 33.53125 -0.691406 26.8125 -4.953125 C 20.09375 -9.210938 14.785156 -15.269531 10.890625 -23.125 C 6.992188 -30.988281 5.046875 -40.078125 5.046875 -50.390625 Z M 80.265625 -50.21875 C 80.265625 -57.894531 78.132812 -63.953125 73.875 -68.390625 C 69.625 -72.828125 64.4375 -75.046875 58.3125 -75.046875 C 52.195312 -75.046875 47.007812 -72.859375 42.75 -68.484375 C 38.488281 -64.109375 36.359375 -58.078125 36.359375 -50.390625 C 36.359375 -42.710938 38.488281 -36.625 42.75 -32.125 C 47.007812 -27.625 52.195312 -25.375 58.3125 -25.375 C 64.4375 -25.375 69.625 -27.59375 73.875 -32.03125 C 78.132812 -36.476562 80.265625 -42.539062 80.265625 -50.21875 Z M 80.265625 -50.21875 "/></g></g></g><g fill="#005acd" fill-opacity="1"><g transform="translate(340.656227, 179.757625)"><g><path d="M 5.046875 -50.21875 C 5.046875 -60.65625 7.171875 -69.769531 11.421875 -77.5625 C 15.679688 -85.363281 21.617188 -91.363281 29.234375 -95.5625 C 36.859375 -99.769531 45.59375 -101.875 55.4375 -101.875 C 68.03125 -101.875 78.554688 -98.570312 87.015625 -91.96875 C 95.484375 -85.375 101.035156 -76.078125 103.671875 -64.078125 L 70.90625 -64.078125 C 68.15625 -71.753906 62.816406 -75.59375 54.890625 -75.59375 C 49.253906 -75.59375 44.753906 -73.398438 41.390625 -69.015625 C 38.035156 -64.640625 36.359375 -58.375 36.359375 -50.21875 C 36.359375 -42.0625 38.035156 -35.789062 41.390625 -31.40625 C 44.753906 -27.03125 49.253906 -24.84375 54.890625 -24.84375 C 62.816406 -24.84375 68.15625 -28.679688 70.90625 -36.359375 L 103.671875 -36.359375 C 101.035156 -24.597656 95.457031 -15.359375 86.9375 -8.640625 C 78.414062 -1.921875 67.914062 1.4375 55.4375 1.4375 C 45.59375 1.4375 36.859375 -0.660156 29.234375 -4.859375 C 21.617188 -9.054688 15.679688 -15.054688 11.421875 -22.859375 C 7.171875 -30.660156 5.046875 -39.78125 5.046875 -50.21875 Z M 5.046875 -50.21875 "/></g></g></g><g fill="#005acd" fill-opacity="1"><g transform="translate(449.539851, 179.757625)"><g><path d="M 72.890625 -101.515625 C 84.410156 -101.515625 93.648438 -97.703125 100.609375 -90.078125 C 107.566406 -82.460938 111.046875 -71.992188 111.046875 -58.671875 L 111.046875 0 L 80.453125 0 L 80.453125 -54.53125 C 80.453125 -61.25 78.710938 -66.46875 75.234375 -70.1875 C 71.753906 -73.90625 67.070312 -75.765625 61.1875 -75.765625 C 55.3125 -75.765625 50.632812 -73.90625 47.15625 -70.1875 C 43.675781 -66.46875 41.9375 -61.25 41.9375 -54.53125 L 41.9375 0 L 11.15625 0 L 11.15625 -133.1875 L 41.9375 -133.1875 L 41.9375 -86.9375 C 45.050781 -91.375 49.304688 -94.910156 54.703125 -97.546875 C 60.109375 -100.191406 66.171875 -101.515625 72.890625 -101.515625 Z M 72.890625 -101.515625 "/></g></g></g><g fill="#005acd" fill-opacity="1"><g transform="translate(570.841635, 179.757625)"><g><path d="M 154.25 -126.34375 L 154.25 0 L 123.46875 0 L 123.46875 -75.765625 L 95.21875 0 L 70.375 0 L 41.9375 -75.953125 L 41.9375 0 L 11.15625 0 L 11.15625 -126.34375 L 47.515625 -126.34375 L 82.96875 -38.875 L 118.0625 -126.34375 Z M 154.25 -126.34375 "/></g></g></g><g fill="#f8560f" fill-opacity="1"><g transform="translate(736.09118, 179.757625)"><g><path d="M 5.046875 -50.390625 C 5.046875 -60.710938 6.992188 -69.769531 10.890625 -77.5625 C 14.785156 -85.363281 20.09375 -91.363281 26.8125 -95.5625 C 33.53125 -99.769531 41.03125 -101.875 49.3125 -101.875 C 56.394531 -101.875 62.601562 -100.429688 67.9375 -97.546875 C 73.28125 -94.671875 77.390625 -90.894531 80.265625 -86.21875 L 80.265625 -100.4375 L 111.046875 -100.4375 L 111.046875 0 L 80.265625 0 L 80.265625 -14.21875 C 77.265625 -9.539062 73.09375 -5.757812 67.75 -2.875 C 62.414062 0 56.210938 1.4375 49.140625 1.4375 C 40.972656 1.4375 33.53125 -0.691406 26.8125 -4.953125 C 20.09375 -9.210938 14.785156 -15.269531 10.890625 -23.125 C 6.992188 -30.988281 5.046875 -40.078125 5.046875 -50.390625 Z M 80.265625 -50.21875 C 80.265625 -57.894531 78.132812 -63.953125 73.875 -68.390625 C 69.625 -72.828125 64.4375 -75.046875 58.3125 -75.046875 C 52.195312 -75.046875 47.007812 -72.859375 42.75 -68.484375 C 38.488281 -64.109375 36.359375 -58.078125 36.359375 -50.390625 C 36.359375 -42.710938 38.488281 -36.625 42.75 -32.125 C 47.007812 -27.625 52.195312 -25.375 58.3125 -25.375 C 64.4375 -25.375 69.625 -27.59375 73.875 -32.03125 C 78.132812 -36.476562 80.265625 -42.539062 80.265625 -50.21875 Z M 80.265625 -50.21875 "/></g></g></g><g fill="#005acd" fill-opacity="1"><g transform="translate(858.323236, 179.757625)"><g><path d="M 41.9375 -83.6875 C 45.53125 -89.207031 50.023438 -93.554688 55.421875 -96.734375 C 60.828125 -99.921875 66.832031 -101.515625 73.4375 -101.515625 L 73.4375 -68.9375 L 64.96875 -68.9375 C 57.289062 -68.9375 51.53125 -67.285156 47.6875 -63.984375 C 43.851562 -60.679688 41.9375 -54.890625 41.9375 -46.609375 L 41.9375 0 L 11.15625 0 L 11.15625 -100.4375 L 41.9375 -100.4375 Z M 41.9375 -83.6875 "/></g></g></g><g fill="#005acd" fill-opacity="1"><g transform="translate(935.351669, 179.757625)"><g><path d="M 72.53125 0 L 41.9375 -42.109375 L 41.9375 0 L 11.15625 0 L 11.15625 -133.1875 L 41.9375 -133.1875 L 41.9375 -59.578125 L 72.359375 -100.4375 L 110.328125 -100.4375 L 68.578125 -50.03125 L 110.6875 0 Z M 72.53125 0 "/></g></g></g><g fill="#f8560f" fill-opacity="1"><g transform="translate(351.050121, 87.825104)"><g><path d="M -102.765625 -11.34375 L -102.765625 -50.03125 L -63 -86.578125 L -23.21875 -50.03125 L -23.21875 -11.34375 L -63 -48.0625 Z M -102.765625 -11.34375 "/></g></g></g><g fill="#f8560f" fill-opacity="1"><g transform="translate(866.273844, 87.825104)"><g><path d="M -102.765625 -11.34375 L -102.765625 -50.03125 L -63 -86.578125 L -23.21875 -50.03125 L -23.21875 -11.34375 L -63 -48.0625 Z M -102.765625 -11.34375 "/></g></g></g></svg>